<svg width="1051" height="537" viewBox="0 0 1051 537" fill="none" xmlns="http://www.w3.org/2000/svg">
<g filter="url(#filter0_d)">
<rect width="409" height="526" rx="22" fill="#C4C4C4" fill-opacity="0.3"/>
</g>
<path d="M156.806 467.974H154.468V472H153.148V462.047H156.443C157.564 462.047 158.426 462.302 159.027 462.812C159.633 463.323 159.937 464.066 159.937 465.041C159.937 465.661 159.768 466.201 159.431 466.661C159.098 467.121 158.633 467.465 158.036 467.693L160.374 471.918V472H158.966L156.806 467.974ZM154.468 466.9H156.484C157.136 466.9 157.653 466.732 158.036 466.395C158.424 466.057 158.617 465.606 158.617 465.041C158.617 464.426 158.433 463.954 158.063 463.626C157.699 463.298 157.17 463.132 156.478 463.127H154.468V466.9ZM164.653 472.137C163.651 472.137 162.835 471.809 162.206 471.152C161.577 470.492 161.263 469.61 161.263 468.507V468.274C161.263 467.541 161.402 466.887 161.68 466.312C161.962 465.734 162.354 465.283 162.855 464.959C163.361 464.631 163.908 464.467 164.496 464.467C165.458 464.467 166.205 464.784 166.738 465.417C167.271 466.05 167.538 466.957 167.538 468.138V468.664H162.527C162.546 469.393 162.757 469.983 163.163 470.435C163.573 470.881 164.093 471.104 164.722 471.104C165.168 471.104 165.547 471.013 165.856 470.831C166.166 470.649 166.438 470.407 166.67 470.106L167.442 470.708C166.823 471.66 165.893 472.137 164.653 472.137ZM164.496 465.506C163.986 465.506 163.557 465.693 163.211 466.066C162.865 466.436 162.65 466.955 162.568 467.625H166.273V467.529C166.237 466.887 166.064 466.39 165.754 466.039C165.444 465.684 165.025 465.506 164.496 465.506ZM173.314 470.038C173.314 469.696 173.185 469.432 172.925 469.245C172.67 469.054 172.221 468.89 171.578 468.753C170.94 468.616 170.432 468.452 170.054 468.261C169.68 468.069 169.402 467.841 169.22 467.577C169.042 467.313 168.953 466.998 168.953 466.634C168.953 466.028 169.208 465.515 169.719 465.096C170.234 464.676 170.89 464.467 171.688 464.467C172.526 464.467 173.205 464.683 173.725 465.116C174.249 465.549 174.511 466.103 174.511 466.777H173.239C173.239 466.431 173.091 466.132 172.795 465.882C172.503 465.631 172.134 465.506 171.688 465.506C171.227 465.506 170.867 465.606 170.607 465.807C170.348 466.007 170.218 466.269 170.218 466.593C170.218 466.898 170.339 467.128 170.58 467.283C170.822 467.438 171.257 467.586 171.886 467.728C172.519 467.869 173.032 468.037 173.424 468.233C173.816 468.429 174.105 468.666 174.292 468.944C174.483 469.218 174.579 469.553 174.579 469.949C174.579 470.61 174.315 471.141 173.786 471.542C173.257 471.938 172.572 472.137 171.729 472.137C171.136 472.137 170.612 472.032 170.156 471.822C169.701 471.613 169.343 471.321 169.083 470.947C168.828 470.569 168.7 470.161 168.7 469.724H169.965C169.988 470.147 170.156 470.485 170.471 470.735C170.79 470.981 171.209 471.104 171.729 471.104C172.207 471.104 172.59 471.009 172.877 470.817C173.169 470.621 173.314 470.362 173.314 470.038ZM179.296 472.137C178.293 472.137 177.478 471.809 176.849 471.152C176.22 470.492 175.905 469.61 175.905 468.507V468.274C175.905 467.541 176.044 466.887 176.322 466.312C176.605 465.734 176.997 465.283 177.498 464.959C178.004 464.631 178.551 464.467 179.139 464.467C180.1 464.467 180.848 464.784 181.381 465.417C181.914 466.05 182.181 466.957 182.181 468.138V468.664H177.17C177.188 469.393 177.4 469.983 177.806 470.435C178.216 470.881 178.735 471.104 179.364 471.104C179.811 471.104 180.189 471.013 180.499 470.831C180.809 470.649 181.08 470.407 181.312 470.106L182.085 470.708C181.465 471.66 180.535 472.137 179.296 472.137ZM179.139 465.506C178.628 465.506 178.2 465.693 177.854 466.066C177.507 466.436 177.293 466.955 177.211 467.625H180.916V467.529C180.88 466.887 180.706 466.39 180.396 466.039C180.087 465.684 179.667 465.506 179.139 465.506ZM187.226 465.738C187.034 465.706 186.827 465.69 186.604 465.69C185.774 465.69 185.211 466.044 184.915 466.75V472H183.65V464.604H184.881L184.901 465.458C185.316 464.797 185.904 464.467 186.665 464.467C186.911 464.467 187.098 464.499 187.226 464.562V465.738ZM190.958 470.284L192.79 464.604H194.082L191.43 472H190.466L187.786 464.604H189.078L190.958 470.284ZM198.272 472.137C197.27 472.137 196.454 471.809 195.825 471.152C195.196 470.492 194.882 469.61 194.882 468.507V468.274C194.882 467.541 195.021 466.887 195.299 466.312C195.581 465.734 195.973 465.283 196.475 464.959C196.98 464.631 197.527 464.467 198.115 464.467C199.077 464.467 199.824 464.784 200.357 465.417C200.891 466.05 201.157 466.957 201.157 468.138V468.664H196.146C196.165 469.393 196.377 469.983 196.782 470.435C197.192 470.881 197.712 471.104 198.341 471.104C198.787 471.104 199.166 471.013 199.476 470.831C199.785 470.649 200.057 470.407 200.289 470.106L201.062 470.708C200.442 471.66 199.512 472.137 198.272 472.137ZM198.115 465.506C197.605 465.506 197.176 465.693 196.83 466.066C196.484 466.436 196.27 466.955 196.188 467.625H199.893V467.529C199.856 466.887 199.683 466.39 199.373 466.039C199.063 465.684 198.644 465.506 198.115 465.506ZM212.648 470.257L214.07 464.604H215.335L213.182 472H212.156L210.358 466.395L208.608 472H207.583L205.437 464.604H206.694L208.15 470.141L209.873 464.604H210.892L212.648 470.257ZM219.696 472.137C218.694 472.137 217.878 471.809 217.249 471.152C216.62 470.492 216.306 469.61 216.306 468.507V468.274C216.306 467.541 216.445 466.887 216.723 466.312C217.005 465.734 217.397 465.283 217.898 464.959C218.404 464.631 218.951 464.467 219.539 464.467C220.501 464.467 221.248 464.784 221.781 465.417C222.314 466.05 222.581 466.957 222.581 468.138V468.664H217.57C217.589 469.393 217.8 469.983 218.206 470.435C218.616 470.881 219.136 471.104 219.765 471.104C220.211 471.104 220.59 471.013 220.899 470.831C221.209 470.649 221.48 470.407 221.713 470.106L222.485 470.708C221.866 471.66 220.936 472.137 219.696 472.137ZM219.539 465.506C219.029 465.506 218.6 465.693 218.254 466.066C217.908 466.436 217.693 466.955 217.611 467.625H221.316V467.529C221.28 466.887 221.107 466.39 220.797 466.039C220.487 465.684 220.068 465.506 219.539 465.506ZM227.12 472.137C226.118 472.137 225.302 471.809 224.673 471.152C224.044 470.492 223.729 469.61 223.729 468.507V468.274C223.729 467.541 223.868 466.887 224.146 466.312C224.429 465.734 224.821 465.283 225.322 464.959C225.828 464.631 226.375 464.467 226.963 464.467C227.924 464.467 228.672 464.784 229.205 465.417C229.738 466.05 230.005 466.957 230.005 468.138V468.664H224.994C225.012 469.393 225.224 469.983 225.63 470.435C226.04 470.881 226.56 471.104 227.188 471.104C227.635 471.104 228.013 471.013 228.323 470.831C228.633 470.649 228.904 470.407 229.137 470.106L229.909 470.708C229.289 471.66 228.36 472.137 227.12 472.137ZM226.963 465.506C226.452 465.506 226.024 465.693 225.678 466.066C225.331 466.436 225.117 466.955 225.035 467.625H228.74V467.529C228.704 466.887 228.531 466.39 228.221 466.039C227.911 465.684 227.492 465.506 226.963 465.506ZM233.539 468.575L232.746 469.402V472H231.481V461.5H232.746V467.851L233.423 467.037L235.727 464.604H237.265L234.387 467.693L237.6 472H236.116L233.539 468.575ZM241.503 472.137C240.5 472.137 239.685 471.809 239.056 471.152C238.427 470.492 238.112 469.61 238.112 468.507V468.274C238.112 467.541 238.251 466.887 238.529 466.312C238.812 465.734 239.204 465.283 239.705 464.959C240.211 464.631 240.758 464.467 241.346 464.467C242.307 464.467 243.055 464.784 243.588 465.417C244.121 466.05 244.388 466.957 244.388 468.138V468.664H239.377C239.395 469.393 239.607 469.983 240.013 470.435C240.423 470.881 240.942 471.104 241.571 471.104C242.018 471.104 242.396 471.013 242.706 470.831C243.016 470.649 243.287 470.407 243.52 470.106L244.292 470.708C243.672 471.66 242.743 472.137 241.503 472.137ZM241.346 465.506C240.835 465.506 240.407 465.693 240.061 466.066C239.714 466.436 239.5 466.955 239.418 467.625H243.123V467.529C243.087 466.887 242.913 466.39 242.604 466.039C242.294 465.684 241.874 465.506 241.346 465.506ZM247.054 464.604L247.095 465.533C247.66 464.822 248.398 464.467 249.31 464.467C250.873 464.467 251.661 465.349 251.675 467.112V472H250.41V467.105C250.406 466.572 250.283 466.178 250.041 465.923C249.804 465.668 249.433 465.54 248.927 465.54C248.517 465.54 248.157 465.649 247.847 465.868C247.537 466.087 247.295 466.374 247.122 466.729V472H245.857V464.604H247.054ZM253.274 468.24C253.274 467.105 253.543 466.194 254.081 465.506C254.619 464.813 255.323 464.467 256.193 464.467C257.059 464.467 257.745 464.763 258.251 465.355V461.5H259.516V472H258.354L258.292 471.207C257.786 471.827 257.082 472.137 256.18 472.137C255.323 472.137 254.623 471.786 254.081 471.084C253.543 470.382 253.274 469.466 253.274 468.336V468.24ZM254.539 468.384C254.539 469.222 254.712 469.879 255.059 470.353C255.405 470.826 255.883 471.063 256.494 471.063C257.296 471.063 257.882 470.703 258.251 469.983V466.586C257.873 465.889 257.292 465.54 256.508 465.54C255.888 465.54 255.405 465.779 255.059 466.258C254.712 466.736 254.539 467.445 254.539 468.384ZM265.791 470.038C265.791 469.696 265.661 469.432 265.401 469.245C265.146 469.054 264.697 468.89 264.055 468.753C263.417 468.616 262.909 468.452 262.53 468.261C262.157 468.069 261.879 467.841 261.696 467.577C261.519 467.313 261.43 466.998 261.43 466.634C261.43 466.028 261.685 465.515 262.195 465.096C262.71 464.676 263.367 464.467 264.164 464.467C265.003 464.467 265.682 464.683 266.201 465.116C266.725 465.549 266.987 466.103 266.987 466.777H265.716C265.716 466.431 265.568 466.132 265.271 465.882C264.98 465.631 264.611 465.506 264.164 465.506C263.704 465.506 263.344 465.606 263.084 465.807C262.824 466.007 262.694 466.269 262.694 466.593C262.694 466.898 262.815 467.128 263.057 467.283C263.298 467.438 263.733 467.586 264.362 467.728C264.996 467.869 265.508 468.037 265.9 468.233C266.292 468.429 266.582 468.666 266.769 468.944C266.96 469.218 267.056 469.553 267.056 469.949C267.056 470.61 266.791 471.141 266.263 471.542C265.734 471.938 265.048 472.137 264.205 472.137C263.613 472.137 263.089 472.032 262.633 471.822C262.177 471.613 261.819 471.321 261.56 470.947C261.304 470.569 261.177 470.161 261.177 469.724H262.441C262.464 470.147 262.633 470.485 262.947 470.735C263.266 470.981 263.686 471.104 264.205 471.104C264.684 471.104 265.066 471.009 265.354 470.817C265.645 470.621 265.791 470.362 265.791 470.038Z" fill="black"/>
<path d="M33.1904 95.0439L35.7881 90.0469H37.2783L33.8467 96.2881V100H32.5342V96.2881L29.1025 90.0469H30.6064L33.1904 95.0439ZM37.5791 96.2334C37.5791 95.5088 37.7204 94.8571 38.0029 94.2783C38.29 93.6995 38.6865 93.2529 39.1924 92.9385C39.7028 92.624 40.2839 92.4668 40.9355 92.4668C41.9427 92.4668 42.7562 92.8154 43.376 93.5127C44.0003 94.21 44.3125 95.1374 44.3125 96.2949V96.3838C44.3125 97.1038 44.1735 97.751 43.8955 98.3252C43.6221 98.8949 43.2279 99.3392 42.7129 99.6582C42.2025 99.9772 41.6146 100.137 40.9492 100.137C39.9466 100.137 39.1331 99.7881 38.5088 99.0908C37.889 98.3936 37.5791 97.4707 37.5791 96.3223V96.2334ZM38.8506 96.3838C38.8506 97.2041 39.0397 97.8626 39.418 98.3594C39.8008 98.8561 40.3112 99.1045 40.9492 99.1045C41.5918 99.1045 42.1022 98.8538 42.4805 98.3525C42.8587 97.8467 43.0479 97.1403 43.0479 96.2334C43.0479 95.4222 42.8542 94.766 42.4668 94.2646C42.084 93.7588 41.5736 93.5059 40.9355 93.5059C40.3112 93.5059 39.8076 93.7542 39.4248 94.251C39.042 94.7477 38.8506 95.4587 38.8506 96.3838ZM50.4648 99.2686C49.9727 99.8473 49.2503 100.137 48.2979 100.137C47.5094 100.137 46.9079 99.9089 46.4932 99.4531C46.083 98.9928 45.8757 98.3138 45.8711 97.416V92.6035H47.1357V97.3818C47.1357 98.5029 47.5915 99.0635 48.5029 99.0635C49.4691 99.0635 50.1117 98.7035 50.4307 97.9834V92.6035H51.6953V100H50.4922L50.4648 99.2686ZM61.6621 100C61.5892 99.8542 61.5299 99.5944 61.4844 99.2207C60.8965 99.8314 60.1947 100.137 59.3789 100.137C58.6497 100.137 58.0505 99.9316 57.5811 99.5215C57.1162 99.1068 56.8838 98.5827 56.8838 97.9492C56.8838 97.179 57.1755 96.582 57.7588 96.1582C58.3467 95.7298 59.1715 95.5156 60.2334 95.5156H61.4639V94.9346C61.4639 94.4925 61.3317 94.1416 61.0674 93.8818C60.8031 93.6175 60.4134 93.4854 59.8984 93.4854C59.4473 93.4854 59.069 93.5993 58.7637 93.8271C58.4583 94.055 58.3057 94.3307 58.3057 94.6543H57.0342C57.0342 94.2852 57.1641 93.9297 57.4238 93.5879C57.6882 93.2415 58.0436 92.9681 58.4902 92.7676C58.9414 92.5671 59.4359 92.4668 59.9736 92.4668C60.8258 92.4668 61.4935 92.681 61.9766 93.1094C62.4596 93.5332 62.7103 94.1188 62.7285 94.8662V98.2705C62.7285 98.9495 62.8151 99.4896 62.9883 99.8906V100H61.6621ZM59.5635 99.0361C59.96 99.0361 60.3359 98.9336 60.6914 98.7285C61.0469 98.5234 61.3044 98.2568 61.4639 97.9287V96.4111H60.4727C58.9232 96.4111 58.1484 96.8646 58.1484 97.7715C58.1484 98.168 58.2806 98.4779 58.5449 98.7012C58.8092 98.9245 59.1488 99.0361 59.5635 99.0361ZM68.2861 93.7383C68.0947 93.7064 67.8874 93.6904 67.6641 93.6904C66.8346 93.6904 66.2718 94.0436 65.9756 94.75V100H64.7109V92.6035H65.9414L65.9619 93.458C66.3766 92.7972 66.9645 92.4668 67.7256 92.4668C67.9717 92.4668 68.1585 92.4987 68.2861 92.5625V93.7383ZM72.3877 100.137C71.3851 100.137 70.5693 99.8086 69.9404 99.1523C69.3115 98.4915 68.9971 97.6097 68.9971 96.5068V96.2744C68.9971 95.5407 69.1361 94.8867 69.4141 94.3125C69.6966 93.7337 70.0885 93.2826 70.5898 92.959C71.0957 92.6309 71.6426 92.4668 72.2305 92.4668C73.1921 92.4668 73.9395 92.7835 74.4727 93.417C75.0059 94.0505 75.2725 94.9574 75.2725 96.1377V96.6641H70.2617C70.2799 97.3932 70.4919 97.9834 70.8975 98.4346C71.3076 98.8812 71.8271 99.1045 72.4561 99.1045C72.9027 99.1045 73.2809 99.0133 73.5908 98.8311C73.9007 98.6488 74.1719 98.4072 74.4043 98.1064L75.1768 98.708C74.557 99.6605 73.6273 100.137 72.3877 100.137ZM72.2305 93.5059C71.7201 93.5059 71.2917 93.6927 70.9453 94.0664C70.599 94.4355 70.3848 94.9551 70.3027 95.625H74.0078V95.5293C73.9714 94.8867 73.7982 94.39 73.4883 94.0391C73.1784 93.6836 72.7591 93.5059 72.2305 93.5059ZM83.1816 99.1045C83.6328 99.1045 84.027 98.9678 84.3643 98.6943C84.7015 98.4209 84.8883 98.0791 84.9248 97.6689H86.1211C86.0983 98.0928 85.9525 98.4961 85.6836 98.8789C85.4147 99.2617 85.0547 99.5671 84.6035 99.7949C84.1569 100.023 83.6829 100.137 83.1816 100.137C82.1745 100.137 81.3724 99.8018 80.7754 99.1318C80.1829 98.4574 79.8867 97.5368 79.8867 96.3701V96.1582C79.8867 95.4382 80.0189 94.7979 80.2832 94.2373C80.5475 93.6768 80.9258 93.2415 81.418 92.9316C81.9147 92.6217 82.5003 92.4668 83.1748 92.4668C84.0042 92.4668 84.6924 92.7152 85.2393 93.2119C85.7907 93.7087 86.0846 94.3535 86.1211 95.1465H84.9248C84.8883 94.668 84.7061 94.276 84.3779 93.9707C84.0544 93.6608 83.6533 93.5059 83.1748 93.5059C82.5322 93.5059 82.0332 93.7383 81.6777 94.2031C81.3268 94.6634 81.1514 95.3311 81.1514 96.2061V96.4453C81.1514 97.2975 81.3268 97.9538 81.6777 98.4141C82.0286 98.8743 82.5299 99.1045 83.1816 99.1045ZM92.1094 99.2686C91.6172 99.8473 90.8949 100.137 89.9424 100.137C89.154 100.137 88.5524 99.9089 88.1377 99.4531C87.7275 98.9928 87.5202 98.3138 87.5156 97.416V92.6035H88.7803V97.3818C88.7803 98.5029 89.236 99.0635 90.1475 99.0635C91.1136 99.0635 91.7562 98.7035 92.0752 97.9834V92.6035H93.3398V100H92.1367L92.1094 99.2686ZM98.8428 93.7383C98.6514 93.7064 98.444 93.6904 98.2207 93.6904C97.3913 93.6904 96.8285 94.0436 96.5322 94.75V100H95.2676V92.6035H96.498L96.5186 93.458C96.9333 92.7972 97.5212 92.4668 98.2822 92.4668C98.5283 92.4668 98.7152 92.4987 98.8428 92.5625V93.7383ZM102.944 100.137C101.942 100.137 101.126 99.8086 100.497 99.1523C99.8682 98.4915 99.5537 97.6097 99.5537 96.5068V96.2744C99.5537 95.5407 99.6927 94.8867 99.9707 94.3125C100.253 93.7337 100.645 93.2826 101.146 92.959C101.652 92.6309 102.199 92.4668 102.787 92.4668C103.749 92.4668 104.496 92.7835 105.029 93.417C105.562 94.0505 105.829 94.9574 105.829 96.1377V96.6641H100.818C100.837 97.3932 101.049 97.9834 101.454 98.4346C101.864 98.8812 102.384 99.1045 103.013 99.1045C103.459 99.1045 103.838 99.0133 104.147 98.8311C104.457 98.6488 104.729 98.4072 104.961 98.1064L105.733 98.708C105.114 99.6605 104.184 100.137 102.944 100.137ZM102.787 93.5059C102.277 93.5059 101.848 93.6927 101.502 94.0664C101.156 94.4355 100.941 94.9551 100.859 95.625H104.564V95.5293C104.528 94.8867 104.355 94.39 104.045 94.0391C103.735 93.6836 103.316 93.5059 102.787 93.5059ZM108.495 92.6035L108.536 93.5332C109.101 92.8223 109.84 92.4668 110.751 92.4668C112.314 92.4668 113.103 93.3486 113.116 95.1123V100H111.852V95.1055C111.847 94.5723 111.724 94.1781 111.482 93.9229C111.245 93.6676 110.874 93.54 110.368 93.54C109.958 93.54 109.598 93.6494 109.288 93.8682C108.978 94.0869 108.737 94.374 108.563 94.7295V100H107.299V92.6035H108.495ZM116.739 90.8125V92.6035H118.12V93.5811H116.739V98.168C116.739 98.4642 116.801 98.6875 116.924 98.8379C117.047 98.9837 117.257 99.0566 117.553 99.0566C117.699 99.0566 117.899 99.0293 118.154 98.9746V100C117.822 100.091 117.498 100.137 117.184 100.137C116.618 100.137 116.192 99.9658 115.905 99.624C115.618 99.2822 115.475 98.7969 115.475 98.168V93.5811H114.128V92.6035H115.475V90.8125H116.739ZM120.978 100H119.713V89.5H120.978V100ZM125.428 98.1475L127.15 92.6035H128.504L125.53 101.142C125.07 102.372 124.339 102.987 123.336 102.987L123.097 102.967L122.625 102.878V101.853L122.967 101.88C123.395 101.88 123.728 101.793 123.965 101.62C124.206 101.447 124.405 101.13 124.56 100.67L124.84 99.918L122.201 92.6035H123.582L125.428 98.1475ZM132.776 96.2334C132.776 95.5088 132.918 94.8571 133.2 94.2783C133.487 93.6995 133.884 93.2529 134.39 92.9385C134.9 92.624 135.481 92.4668 136.133 92.4668C137.14 92.4668 137.953 92.8154 138.573 93.5127C139.198 94.21 139.51 95.1374 139.51 96.2949V96.3838C139.51 97.1038 139.371 97.751 139.093 98.3252C138.819 98.8949 138.425 99.3392 137.91 99.6582C137.4 99.9772 136.812 100.137 136.146 100.137C135.144 100.137 134.33 99.7881 133.706 99.0908C133.086 98.3936 132.776 97.4707 132.776 96.3223V96.2334ZM134.048 96.3838C134.048 97.2041 134.237 97.8626 134.615 98.3594C134.998 98.8561 135.508 99.1045 136.146 99.1045C136.789 99.1045 137.299 98.8538 137.678 98.3525C138.056 97.8467 138.245 97.1403 138.245 96.2334C138.245 95.4222 138.051 94.766 137.664 94.2646C137.281 93.7588 136.771 93.5059 136.133 93.5059C135.508 93.5059 135.005 93.7542 134.622 94.251C134.239 94.7477 134.048 95.4587 134.048 96.3838ZM142.292 92.6035L142.333 93.5332C142.898 92.8223 143.636 92.4668 144.548 92.4668C146.111 92.4668 146.899 93.3486 146.913 95.1123V100H145.648V95.1055C145.644 94.5723 145.521 94.1781 145.279 93.9229C145.042 93.6676 144.671 93.54 144.165 93.54C143.755 93.54 143.395 93.6494 143.085 93.8682C142.775 94.0869 142.534 94.374 142.36 94.7295V100H141.096V92.6035H142.292ZM156.859 100C156.786 99.8542 156.727 99.5944 156.682 99.2207C156.094 99.8314 155.392 100.137 154.576 100.137C153.847 100.137 153.248 99.9316 152.778 99.5215C152.313 99.1068 152.081 98.5827 152.081 97.9492C152.081 97.179 152.373 96.582 152.956 96.1582C153.544 95.7298 154.369 95.5156 155.431 95.5156H156.661V94.9346C156.661 94.4925 156.529 94.1416 156.265 93.8818C156 93.6175 155.611 93.4854 155.096 93.4854C154.645 93.4854 154.266 93.5993 153.961 93.8271C153.656 94.055 153.503 94.3307 153.503 94.6543H152.231C152.231 94.2852 152.361 93.9297 152.621 93.5879C152.885 93.2415 153.241 92.9681 153.688 92.7676C154.139 92.5671 154.633 92.4668 155.171 92.4668C156.023 92.4668 156.691 92.681 157.174 93.1094C157.657 93.5332 157.908 94.1188 157.926 94.8662V98.2705C157.926 98.9495 158.012 99.4896 158.186 99.8906V100H156.859ZM154.761 99.0361C155.157 99.0361 155.533 98.9336 155.889 98.7285C156.244 98.5234 156.502 98.2568 156.661 97.9287V96.4111H155.67C154.12 96.4111 153.346 96.8646 153.346 97.7715C153.346 98.168 153.478 98.4779 153.742 98.7012C154.007 98.9245 154.346 99.0361 154.761 99.0361ZM168.59 96.6572H169.971V97.6895H168.59V100H167.318V97.6895H162.786V96.9443L167.243 90.0469H168.59V96.6572ZM164.222 96.6572H167.318V91.7764L167.168 92.0498L164.222 96.6572ZM177.354 95.7549C177.354 97.236 177.101 98.3366 176.595 99.0566C176.089 99.7767 175.298 100.137 174.223 100.137C173.161 100.137 172.375 99.7858 171.864 99.084C171.354 98.3776 171.09 97.3249 171.071 95.9258V94.2373C171.071 92.7744 171.324 91.6875 171.83 90.9766C172.336 90.2656 173.129 89.9102 174.209 89.9102C175.28 89.9102 176.068 90.2542 176.574 90.9424C177.08 91.626 177.34 92.6833 177.354 94.1143V95.7549ZM176.089 94.0254C176.089 92.9544 175.938 92.1751 175.638 91.6875C175.337 91.1953 174.861 90.9492 174.209 90.9492C173.562 90.9492 173.09 91.193 172.794 91.6807C172.498 92.1683 172.345 92.918 172.336 93.9297V95.9531C172.336 97.0286 172.491 97.8239 172.801 98.3389C173.115 98.8493 173.589 99.1045 174.223 99.1045C174.847 99.1045 175.31 98.863 175.61 98.3799C175.916 97.8968 176.075 97.1357 176.089 96.0967V94.0254ZM180.368 93.499C180.929 92.8109 181.658 92.4668 182.556 92.4668C184.119 92.4668 184.907 93.3486 184.921 95.1123V100H183.656V95.1055C183.652 94.5723 183.529 94.1781 183.287 93.9229C183.05 93.6676 182.679 93.54 182.173 93.54C181.763 93.54 181.403 93.6494 181.093 93.8682C180.783 94.0869 180.541 94.374 180.368 94.7295V100H179.104V89.5H180.368V93.499ZM186.479 96.2334C186.479 95.5088 186.621 94.8571 186.903 94.2783C187.19 93.6995 187.587 93.2529 188.093 92.9385C188.603 92.624 189.184 92.4668 189.836 92.4668C190.843 92.4668 191.657 92.8154 192.276 93.5127C192.901 94.21 193.213 95.1374 193.213 96.2949V96.3838C193.213 97.1038 193.074 97.751 192.796 98.3252C192.522 98.8949 192.128 99.3392 191.613 99.6582C191.103 99.9772 190.515 100.137 189.85 100.137C188.847 100.137 188.034 99.7881 187.409 99.0908C186.789 98.3936 186.479 97.4707 186.479 96.3223V96.2334ZM187.751 96.3838C187.751 97.2041 187.94 97.8626 188.318 98.3594C188.701 98.8561 189.212 99.1045 189.85 99.1045C190.492 99.1045 191.003 98.8538 191.381 98.3525C191.759 97.8467 191.948 97.1403 191.948 96.2334C191.948 95.4222 191.755 94.766 191.367 94.2646C190.984 93.7588 190.474 93.5059 189.836 93.5059C189.212 93.5059 188.708 93.7542 188.325 94.251C187.942 94.7477 187.751 95.4587 187.751 96.3838ZM199.365 99.2686C198.873 99.8473 198.151 100.137 197.198 100.137C196.41 100.137 195.808 99.9089 195.394 99.4531C194.983 98.9928 194.776 98.3138 194.771 97.416V92.6035H196.036V97.3818C196.036 98.5029 196.492 99.0635 197.403 99.0635C198.369 99.0635 199.012 98.7035 199.331 97.9834V92.6035H200.596V100H199.393L199.365 99.2686ZM206.099 93.7383C205.907 93.7064 205.7 93.6904 205.477 93.6904C204.647 93.6904 204.084 94.0436 203.788 94.75V100H202.523V92.6035H203.754L203.774 93.458C204.189 92.7972 204.777 92.4668 205.538 92.4668C205.784 92.4668 205.971 92.4987 206.099 92.5625V93.7383ZM211.574 98.0381C211.574 97.6963 211.444 97.432 211.185 97.2451C210.929 97.0537 210.48 96.8896 209.838 96.7529C209.2 96.6162 208.692 96.4521 208.313 96.2607C207.94 96.0693 207.662 95.8415 207.479 95.5771C207.302 95.3128 207.213 94.9984 207.213 94.6338C207.213 94.0277 207.468 93.515 207.979 93.0957C208.493 92.6764 209.15 92.4668 209.947 92.4668C210.786 92.4668 211.465 92.6833 211.984 93.1162C212.508 93.5492 212.771 94.1029 212.771 94.7773H211.499C211.499 94.431 211.351 94.1325 211.055 93.8818C210.763 93.6312 210.394 93.5059 209.947 93.5059C209.487 93.5059 209.127 93.6061 208.867 93.8066C208.607 94.0072 208.478 94.2692 208.478 94.5928C208.478 94.8981 208.598 95.1283 208.84 95.2832C209.081 95.4382 209.517 95.5863 210.146 95.7275C210.779 95.8688 211.292 96.0374 211.684 96.2334C212.076 96.4294 212.365 96.6663 212.552 96.9443C212.743 97.2178 212.839 97.5527 212.839 97.9492C212.839 98.61 212.575 99.141 212.046 99.542C211.517 99.9385 210.831 100.137 209.988 100.137C209.396 100.137 208.872 100.032 208.416 99.8223C207.96 99.6126 207.603 99.321 207.343 98.9473C207.088 98.569 206.96 98.1611 206.96 97.7236H208.225C208.247 98.1475 208.416 98.4847 208.73 98.7354C209.049 98.9814 209.469 99.1045 209.988 99.1045C210.467 99.1045 210.85 99.0088 211.137 98.8174C211.428 98.6214 211.574 98.3617 211.574 98.0381ZM214.739 100.854H213.652L217.809 90.0469H218.889L214.739 100.854ZM226.504 96.3838C226.504 97.5094 226.246 98.4163 225.731 99.1045C225.216 99.7926 224.519 100.137 223.64 100.137C222.742 100.137 222.035 99.8519 221.521 99.2822V102.844H220.256V92.6035H221.411L221.473 93.4238C221.988 92.7858 222.703 92.4668 223.619 92.4668C224.508 92.4668 225.21 92.8018 225.725 93.4717C226.244 94.1416 226.504 95.0736 226.504 96.2676V96.3838ZM225.239 96.2402C225.239 95.4062 225.062 94.7477 224.706 94.2646C224.351 93.7816 223.863 93.54 223.243 93.54C222.478 93.54 221.903 93.8796 221.521 94.5586V98.0928C221.899 98.7673 222.478 99.1045 223.257 99.1045C223.863 99.1045 224.344 98.8652 224.699 98.3867C225.059 97.9036 225.239 97.1882 225.239 96.2402ZM231.187 100.137C230.184 100.137 229.368 99.8086 228.739 99.1523C228.11 98.4915 227.796 97.6097 227.796 96.5068V96.2744C227.796 95.5407 227.935 94.8867 228.213 94.3125C228.495 93.7337 228.887 93.2826 229.389 92.959C229.895 92.6309 230.441 92.4668 231.029 92.4668C231.991 92.4668 232.738 92.7835 233.271 93.417C233.805 94.0505 234.071 94.9574 234.071 96.1377V96.6641H229.061C229.079 97.3932 229.291 97.9834 229.696 98.4346C230.106 98.8812 230.626 99.1045 231.255 99.1045C231.701 99.1045 232.08 99.0133 232.39 98.8311C232.7 98.6488 232.971 98.4072 233.203 98.1064L233.976 98.708C233.356 99.6605 232.426 100.137 231.187 100.137ZM231.029 93.5059C230.519 93.5059 230.09 93.6927 229.744 94.0664C229.398 94.4355 229.184 94.9551 229.102 95.625H232.807V95.5293C232.77 94.8867 232.597 94.39 232.287 94.0391C231.977 93.6836 231.558 93.5059 231.029 93.5059ZM239.116 93.7383C238.925 93.7064 238.717 93.6904 238.494 93.6904C237.665 93.6904 237.102 94.0436 236.806 94.75V100H235.541V92.6035H236.771L236.792 93.458C237.207 92.7972 237.795 92.4668 238.556 92.4668C238.802 92.4668 238.989 92.4987 239.116 92.5625V93.7383ZM250.307 98.2568L251.729 92.6035H252.993L250.84 100H249.814L248.017 94.3945L246.267 100H245.241L243.095 92.6035H244.353L245.809 98.1406L247.531 92.6035H248.55L250.307 98.2568ZM257.354 100.137C256.352 100.137 255.536 99.8086 254.907 99.1523C254.278 98.4915 253.964 97.6097 253.964 96.5068V96.2744C253.964 95.5407 254.103 94.8867 254.381 94.3125C254.663 93.7337 255.055 93.2826 255.557 92.959C256.062 92.6309 256.609 92.4668 257.197 92.4668C258.159 92.4668 258.906 92.7835 259.439 93.417C259.973 94.0505 260.239 94.9574 260.239 96.1377V96.6641H255.229C255.247 97.3932 255.459 97.9834 255.864 98.4346C256.274 98.8812 256.794 99.1045 257.423 99.1045C257.869 99.1045 258.248 99.0133 258.558 98.8311C258.868 98.6488 259.139 98.4072 259.371 98.1064L260.144 98.708C259.524 99.6605 258.594 100.137 257.354 100.137ZM257.197 93.5059C256.687 93.5059 256.258 93.6927 255.912 94.0664C255.566 94.4355 255.352 94.9551 255.27 95.625H258.975V95.5293C258.938 94.8867 258.765 94.39 258.455 94.0391C258.145 93.6836 257.726 93.5059 257.197 93.5059ZM264.778 100.137C263.776 100.137 262.96 99.8086 262.331 99.1523C261.702 98.4915 261.388 97.6097 261.388 96.5068V96.2744C261.388 95.5407 261.527 94.8867 261.805 94.3125C262.087 93.7337 262.479 93.2826 262.98 92.959C263.486 92.6309 264.033 92.4668 264.621 92.4668C265.583 92.4668 266.33 92.7835 266.863 93.417C267.396 94.0505 267.663 94.9574 267.663 96.1377V96.6641H262.652C262.671 97.3932 262.882 97.9834 263.288 98.4346C263.698 98.8812 264.218 99.1045 264.847 99.1045C265.293 99.1045 265.672 99.0133 265.981 98.8311C266.291 98.6488 266.562 98.4072 266.795 98.1064L267.567 98.708C266.948 99.6605 266.018 100.137 264.778 100.137ZM264.621 93.5059C264.111 93.5059 263.682 93.6927 263.336 94.0664C262.99 94.4355 262.775 94.9551 262.693 95.625H266.398V95.5293C266.362 94.8867 266.189 94.39 265.879 94.0391C265.569 93.6836 265.15 93.5059 264.621 93.5059ZM271.197 96.5752L270.404 97.4023V100H269.14V89.5H270.404V95.8506L271.081 95.0371L273.385 92.6035H274.923L272.045 95.6934L275.258 100H273.774L271.197 96.5752ZM286.25 98.2568L287.672 92.6035H288.937L286.783 100H285.758L283.96 94.3945L282.21 100H281.185L279.038 92.6035H280.296L281.752 98.1406L283.475 92.6035H284.493L286.25 98.2568ZM289.894 96.2334C289.894 95.5088 290.035 94.8571 290.317 94.2783C290.604 93.6995 291.001 93.2529 291.507 92.9385C292.017 92.624 292.598 92.4668 293.25 92.4668C294.257 92.4668 295.071 92.8154 295.69 93.5127C296.315 94.21 296.627 95.1374 296.627 96.2949V96.3838C296.627 97.1038 296.488 97.751 296.21 98.3252C295.937 98.8949 295.542 99.3392 295.027 99.6582C294.517 99.9772 293.929 100.137 293.264 100.137C292.261 100.137 291.448 99.7881 290.823 99.0908C290.203 98.3936 289.894 97.4707 289.894 96.3223V96.2334ZM291.165 96.3838C291.165 97.2041 291.354 97.8626 291.732 98.3594C292.115 98.8561 292.626 99.1045 293.264 99.1045C293.906 99.1045 294.417 98.8538 294.795 98.3525C295.173 97.8467 295.362 97.1403 295.362 96.2334C295.362 95.4222 295.169 94.766 294.781 94.2646C294.398 93.7588 293.888 93.5059 293.25 93.5059C292.626 93.5059 292.122 93.7542 291.739 94.251C291.356 94.7477 291.165 95.4587 291.165 96.3838ZM301.788 93.7383C301.597 93.7064 301.389 93.6904 301.166 93.6904C300.337 93.6904 299.774 94.0436 299.478 94.75V100H298.213V92.6035H299.443L299.464 93.458C299.879 92.7972 300.466 92.4668 301.228 92.4668C301.474 92.4668 301.66 92.4987 301.788 92.5625V93.7383ZM305.021 96.5752L304.229 97.4023V100H302.964V89.5H304.229V95.8506L304.905 95.0371L307.209 92.6035H308.747L305.869 95.6934L309.082 100H307.599L305.021 96.5752ZM318.092 100C318.019 99.8542 317.96 99.5944 317.914 99.2207C317.326 99.8314 316.624 100.137 315.809 100.137C315.079 100.137 314.48 99.9316 314.011 99.5215C313.546 99.1068 313.313 98.5827 313.313 97.9492C313.313 97.179 313.605 96.582 314.188 96.1582C314.776 95.7298 315.601 95.5156 316.663 95.5156H317.894V94.9346C317.894 94.4925 317.761 94.1416 317.497 93.8818C317.233 93.6175 316.843 93.4854 316.328 93.4854C315.877 93.4854 315.499 93.5993 315.193 93.8271C314.888 94.055 314.735 94.3307 314.735 94.6543H313.464C313.464 94.2852 313.594 93.9297 313.854 93.5879C314.118 93.2415 314.473 92.9681 314.92 92.7676C315.371 92.5671 315.866 92.4668 316.403 92.4668C317.256 92.4668 317.923 92.681 318.406 93.1094C318.889 93.5332 319.14 94.1188 319.158 94.8662V98.2705C319.158 98.9495 319.245 99.4896 319.418 99.8906V100H318.092ZM315.993 99.0361C316.39 99.0361 316.766 98.9336 317.121 98.7285C317.477 98.5234 317.734 98.2568 317.894 97.9287V96.4111H316.902C315.353 96.4111 314.578 96.8646 314.578 97.7715C314.578 98.168 314.71 98.4779 314.975 98.7012C315.239 98.9245 315.578 99.0361 315.993 99.0361ZM320.84 96.2402C320.84 95.0872 321.106 94.1712 321.64 93.4922C322.173 92.8086 322.879 92.4668 323.759 92.4668C324.661 92.4668 325.365 92.7858 325.871 93.4238L325.933 92.6035H327.088V99.8223C327.088 100.779 326.803 101.534 326.233 102.085C325.668 102.636 324.907 102.912 323.95 102.912C323.417 102.912 322.895 102.798 322.385 102.57C321.874 102.342 321.485 102.03 321.216 101.634L321.872 100.875C322.414 101.545 323.077 101.88 323.861 101.88C324.477 101.88 324.955 101.707 325.297 101.36C325.643 101.014 325.816 100.526 325.816 99.8975V99.2617C325.311 99.8451 324.62 100.137 323.745 100.137C322.879 100.137 322.177 99.7881 321.64 99.0908C321.106 98.3936 320.84 97.4434 320.84 96.2402ZM322.111 96.3838C322.111 97.2178 322.282 97.874 322.624 98.3525C322.966 98.8265 323.444 99.0635 324.06 99.0635C324.857 99.0635 325.443 98.7012 325.816 97.9766V94.5996C325.429 93.8932 324.848 93.54 324.073 93.54C323.458 93.54 322.977 93.7793 322.631 94.2578C322.285 94.7363 322.111 95.445 322.111 96.3838ZM332.577 93.7383C332.386 93.7064 332.178 93.6904 331.955 93.6904C331.126 93.6904 330.563 94.0436 330.267 94.75V100H329.002V92.6035H330.232L330.253 93.458C330.668 92.7972 331.256 92.4668 332.017 92.4668C332.263 92.4668 332.45 92.4987 332.577 92.5625V93.7383ZM336.679 100.137C335.676 100.137 334.86 99.8086 334.231 99.1523C333.603 98.4915 333.288 97.6097 333.288 96.5068V96.2744C333.288 95.5407 333.427 94.8867 333.705 94.3125C333.988 93.7337 334.38 93.2826 334.881 92.959C335.387 92.6309 335.934 92.4668 336.521 92.4668C337.483 92.4668 338.23 92.7835 338.764 93.417C339.297 94.0505 339.563 94.9574 339.563 96.1377V96.6641H334.553C334.571 97.3932 334.783 97.9834 335.188 98.4346C335.599 98.8812 336.118 99.1045 336.747 99.1045C337.194 99.1045 337.572 99.0133 337.882 98.8311C338.192 98.6488 338.463 98.4072 338.695 98.1064L339.468 98.708C338.848 99.6605 337.918 100.137 336.679 100.137ZM336.521 93.5059C336.011 93.5059 335.583 93.6927 335.236 94.0664C334.89 94.4355 334.676 94.9551 334.594 95.625H338.299V95.5293C338.262 94.8867 338.089 94.39 337.779 94.0391C337.469 93.6836 337.05 93.5059 336.521 93.5059ZM344.103 100.137C343.1 100.137 342.284 99.8086 341.655 99.1523C341.026 98.4915 340.712 97.6097 340.712 96.5068V96.2744C340.712 95.5407 340.851 94.8867 341.129 94.3125C341.411 93.7337 341.803 93.2826 342.305 92.959C342.811 92.6309 343.357 92.4668 343.945 92.4668C344.907 92.4668 345.654 92.7835 346.188 93.417C346.721 94.0505 346.987 94.9574 346.987 96.1377V96.6641H341.977C341.995 97.3932 342.207 97.9834 342.612 98.4346C343.022 98.8812 343.542 99.1045 344.171 99.1045C344.618 99.1045 344.996 99.0133 345.306 98.8311C345.616 98.6488 345.887 98.4072 346.119 98.1064L346.892 98.708C346.272 99.6605 345.342 100.137 344.103 100.137ZM343.945 93.5059C343.435 93.5059 343.007 93.6927 342.66 94.0664C342.314 94.4355 342.1 94.9551 342.018 95.625H345.723V95.5293C345.686 94.8867 345.513 94.39 345.203 94.0391C344.893 93.6836 344.474 93.5059 343.945 93.5059ZM349.646 92.6035L349.681 93.4238C350.223 92.7858 350.954 92.4668 351.875 92.4668C352.91 92.4668 353.614 92.8633 353.987 93.6562C354.233 93.3008 354.552 93.0137 354.944 92.7949C355.341 92.5762 355.808 92.4668 356.346 92.4668C357.968 92.4668 358.793 93.3258 358.82 95.0439V100H357.556V95.1191C357.556 94.5905 357.435 94.1963 357.193 93.9365C356.952 93.6722 356.546 93.54 355.977 93.54C355.507 93.54 355.118 93.6813 354.808 93.9639C354.498 94.2419 354.318 94.6178 354.268 95.0918V100H352.996V95.1533C352.996 94.0778 352.47 93.54 351.417 93.54C350.588 93.54 350.02 93.8932 349.715 94.5996V100H348.45V92.6035H349.646ZM363.804 100.137C362.801 100.137 361.985 99.8086 361.356 99.1523C360.728 98.4915 360.413 97.6097 360.413 96.5068V96.2744C360.413 95.5407 360.552 94.8867 360.83 94.3125C361.113 93.7337 361.505 93.2826 362.006 92.959C362.512 92.6309 363.059 92.4668 363.646 92.4668C364.608 92.4668 365.355 92.7835 365.889 93.417C366.422 94.0505 366.688 94.9574 366.688 96.1377V96.6641H361.678C361.696 97.3932 361.908 97.9834 362.313 98.4346C362.724 98.8812 363.243 99.1045 363.872 99.1045C364.319 99.1045 364.697 99.0133 365.007 98.8311C365.317 98.6488 365.588 98.4072 365.82 98.1064L366.593 98.708C365.973 99.6605 365.043 100.137 363.804 100.137ZM363.646 93.5059C363.136 93.5059 362.708 93.6927 362.361 94.0664C362.015 94.4355 361.801 94.9551 361.719 95.625H365.424V95.5293C365.387 94.8867 365.214 94.39 364.904 94.0391C364.594 93.6836 364.175 93.5059 363.646 93.5059ZM369.354 92.6035L369.396 93.5332C369.961 92.8223 370.699 92.4668 371.61 92.4668C373.174 92.4668 373.962 93.3486 373.976 95.1123V100H372.711V95.1055C372.706 94.5723 372.583 94.1781 372.342 93.9229C372.105 93.6676 371.733 93.54 371.228 93.54C370.817 93.54 370.457 93.6494 370.147 93.8682C369.838 94.0869 369.596 94.374 369.423 94.7295V100H368.158V92.6035H369.354ZM377.599 90.8125V92.6035H378.979V93.5811H377.599V98.168C377.599 98.4642 377.66 98.6875 377.783 98.8379C377.906 98.9837 378.116 99.0566 378.412 99.0566C378.558 99.0566 378.758 99.0293 379.014 98.9746V100C378.681 100.091 378.357 100.137 378.043 100.137C377.478 100.137 377.052 99.9658 376.765 99.624C376.478 99.2822 376.334 98.7969 376.334 98.168V93.5811H374.987V92.6035H376.334V90.8125H377.599Z" fill="black"/>
<rect x="116.25" y="459.25" width="21.5" height="19.5" fill="#C4C4C4" stroke="black" stroke-width="0.5"/>
<rect x="114.25" y="134.25" width="21.5" height="19.5" fill="#C4C4C4" stroke="black" stroke-width="0.5"/>
<g filter="url(#filter1_d)">
<path d="M853.5 63C903.192 63 950.918 81.9585 986.496 115.831C1022.07 149.704 1042.69 195.81 1043.94 244.313C1045.19 292.816 1026.98 339.877 993.199 375.457C959.414 411.037 912.727 432.319 863.098 434.764C813.469 437.208 764.825 420.622 727.545 388.542C690.264 356.462 667.298 311.429 663.544 263.049C659.791 214.669 675.548 166.772 707.453 129.576C739.359 92.3789 784.888 68.8271 834.329 63.9443L839.269 111.634C802.57 115.258 768.774 132.741 745.09 160.352C721.406 187.963 709.71 223.517 712.496 259.429C715.283 295.341 732.331 328.769 760.004 352.582C787.677 376.394 823.785 388.706 860.625 386.892C897.464 385.077 932.12 369.28 957.198 342.869C982.276 316.458 995.792 281.525 994.863 245.521C993.933 209.517 978.632 175.293 952.222 150.149C925.813 125.006 890.387 110.933 853.5 110.933L853.5 63Z" fill="#C4C4C4"/>
</g>
<path d="M785.316 244.25C784.184 245.598 782.826 246.682 781.244 247.502C779.682 248.322 777.963 248.732 776.088 248.732C773.627 248.732 771.479 248.127 769.643 246.916C767.826 245.705 766.42 244.006 765.424 241.818C764.428 239.611 763.93 237.18 763.93 234.523C763.93 231.672 764.467 229.104 765.541 226.818C766.635 224.533 768.178 222.785 770.17 221.574C772.162 220.363 774.486 219.758 777.143 219.758C781.361 219.758 784.682 221.34 787.104 224.504C789.545 227.648 790.766 231.945 790.766 237.395V238.977C790.766 247.277 789.125 253.342 785.844 257.17C782.562 260.979 777.611 262.932 770.99 263.029H769.936V258.459H771.078C775.551 258.381 778.988 257.219 781.391 254.973C783.793 252.707 785.102 249.133 785.316 244.25ZM776.967 244.25C778.783 244.25 780.453 243.693 781.977 242.58C783.52 241.467 784.643 240.09 785.346 238.449V236.281C785.346 232.727 784.574 229.836 783.031 227.609C781.488 225.383 779.535 224.27 777.172 224.27C774.789 224.27 772.875 225.188 771.43 227.023C769.984 228.84 769.262 231.242 769.262 234.23C769.262 237.141 769.955 239.543 771.342 241.438C772.748 243.312 774.623 244.25 776.967 244.25ZM813.5 260.158C813.5 259.221 813.773 258.439 814.32 257.814C814.887 257.189 815.727 256.877 816.84 256.877C817.953 256.877 818.793 257.189 819.359 257.814C819.945 258.439 820.238 259.221 820.238 260.158C820.238 261.057 819.945 261.809 819.359 262.414C818.793 263.02 817.953 263.322 816.84 263.322C815.727 263.322 814.887 263.02 814.32 262.414C813.773 261.809 813.5 261.057 813.5 260.158ZM813.529 234.289C813.529 233.352 813.803 232.57 814.35 231.945C814.916 231.32 815.756 231.008 816.869 231.008C817.982 231.008 818.822 231.32 819.389 231.945C819.975 232.57 820.268 233.352 820.268 234.289C820.268 235.188 819.975 235.939 819.389 236.545C818.822 237.15 817.982 237.453 816.869 237.453C815.756 237.453 814.916 237.15 814.35 236.545C813.803 235.939 813.529 235.188 813.529 234.289ZM869.281 244.807C869.281 251.154 868.197 255.871 866.029 258.957C863.861 262.043 860.473 263.586 855.863 263.586C851.312 263.586 847.943 262.082 845.756 259.074C843.568 256.047 842.436 251.535 842.357 245.539V238.303C842.357 232.033 843.441 227.375 845.609 224.328C847.777 221.281 851.176 219.758 855.805 219.758C860.395 219.758 863.773 221.232 865.941 224.182C868.109 227.111 869.223 231.643 869.281 237.775V244.807ZM863.861 237.395C863.861 232.805 863.217 229.465 861.928 227.375C860.639 225.266 858.598 224.211 855.805 224.211C853.031 224.211 851.01 225.256 849.74 227.346C848.471 229.436 847.816 232.648 847.777 236.984V245.656C847.777 250.266 848.441 253.674 849.77 255.881C851.117 258.068 853.148 259.162 855.863 259.162C858.539 259.162 860.521 258.127 861.811 256.057C863.119 253.986 863.803 250.725 863.861 246.271V237.395ZM902.973 244.807C902.973 251.154 901.889 255.871 899.721 258.957C897.553 262.043 894.164 263.586 889.555 263.586C885.004 263.586 881.635 262.082 879.447 259.074C877.26 256.047 876.127 251.535 876.049 245.539V238.303C876.049 232.033 877.133 227.375 879.301 224.328C881.469 221.281 884.867 219.758 889.496 219.758C894.086 219.758 897.465 221.232 899.633 224.182C901.801 227.111 902.914 231.643 902.973 237.775V244.807ZM897.553 237.395C897.553 232.805 896.908 229.465 895.619 227.375C894.33 225.266 892.289 224.211 889.496 224.211C886.723 224.211 884.701 225.256 883.432 227.346C882.162 229.436 881.508 232.648 881.469 236.984V245.656C881.469 250.266 882.133 253.674 883.461 255.881C884.809 258.068 886.84 259.162 889.555 259.162C892.23 259.162 894.213 258.127 895.502 256.057C896.811 253.986 897.494 250.725 897.553 246.271V237.395Z" fill="black"/>
<path d="M925.253 250.434H916.317L914.311 256H911.41L919.555 234.672H922.016L930.175 256H927.289L925.253 250.434ZM917.167 248.119H924.418L920.785 238.144L917.167 248.119ZM936.679 234.672L943.651 252.074L950.624 234.672H954.271V256H951.459V247.694L951.723 238.729L944.721 256H942.567L935.58 238.773L935.858 247.694V256H933.046V234.672H936.679Z" fill="black"/>
<rect x="40" y="162" width="340" height="273" rx="19" fill="#D2CCCC"/>
<path d="M156.155 149V139.047H158.965C159.831 139.047 160.596 139.238 161.262 139.621C161.927 140.004 162.44 140.549 162.8 141.255C163.164 141.961 163.349 142.772 163.354 143.688V144.324C163.354 145.263 163.171 146.086 162.807 146.792C162.447 147.498 161.929 148.041 161.255 148.419C160.585 148.797 159.803 148.991 158.91 149H156.155ZM157.468 140.127V147.927H158.849C159.86 147.927 160.646 147.612 161.207 146.983C161.772 146.354 162.055 145.459 162.055 144.297V143.716C162.055 142.586 161.788 141.708 161.255 141.084C160.726 140.455 159.974 140.136 158.999 140.127H157.468ZM166.519 149H165.254V141.604H166.519V149ZM165.151 139.642C165.151 139.437 165.213 139.263 165.336 139.122C165.464 138.981 165.65 138.91 165.896 138.91C166.143 138.91 166.329 138.981 166.457 139.122C166.585 139.263 166.648 139.437 166.648 139.642C166.648 139.847 166.585 140.018 166.457 140.154C166.329 140.291 166.143 140.359 165.896 140.359C165.65 140.359 165.464 140.291 165.336 140.154C165.213 140.018 165.151 139.847 165.151 139.642ZM172.855 147.038C172.855 146.696 172.726 146.432 172.466 146.245C172.211 146.054 171.762 145.89 171.119 145.753C170.481 145.616 169.973 145.452 169.595 145.261C169.221 145.069 168.943 144.841 168.761 144.577C168.583 144.313 168.494 143.998 168.494 143.634C168.494 143.028 168.749 142.515 169.26 142.096C169.775 141.676 170.431 141.467 171.229 141.467C172.067 141.467 172.746 141.683 173.266 142.116C173.79 142.549 174.052 143.103 174.052 143.777H172.78C172.78 143.431 172.632 143.132 172.336 142.882C172.044 142.631 171.675 142.506 171.229 142.506C170.768 142.506 170.408 142.606 170.148 142.807C169.889 143.007 169.759 143.269 169.759 143.593C169.759 143.898 169.88 144.128 170.121 144.283C170.363 144.438 170.798 144.586 171.427 144.728C172.06 144.869 172.573 145.037 172.965 145.233C173.357 145.429 173.646 145.666 173.833 145.944C174.024 146.218 174.12 146.553 174.12 146.949C174.12 147.61 173.856 148.141 173.327 148.542C172.799 148.938 172.113 149.137 171.27 149.137C170.677 149.137 170.153 149.032 169.697 148.822C169.242 148.613 168.884 148.321 168.624 147.947C168.369 147.569 168.241 147.161 168.241 146.724H169.506C169.529 147.147 169.697 147.485 170.012 147.735C170.331 147.981 170.75 148.104 171.27 148.104C171.748 148.104 172.131 148.009 172.418 147.817C172.71 147.621 172.855 147.362 172.855 147.038ZM177.483 139.812V141.604H178.864V142.581H177.483V147.168C177.483 147.464 177.545 147.688 177.668 147.838C177.791 147.984 178.001 148.057 178.297 148.057C178.443 148.057 178.643 148.029 178.898 147.975V149C178.566 149.091 178.242 149.137 177.928 149.137C177.363 149.137 176.937 148.966 176.649 148.624C176.362 148.282 176.219 147.797 176.219 147.168V142.581H174.872V141.604H176.219V139.812H177.483ZM183.923 142.738C183.731 142.706 183.524 142.69 183.301 142.69C182.471 142.69 181.909 143.044 181.612 143.75V149H180.348V141.604H181.578L181.599 142.458C182.013 141.797 182.601 141.467 183.362 141.467C183.608 141.467 183.795 141.499 183.923 141.562V142.738ZM186.466 149H185.201V141.604H186.466V149ZM185.099 139.642C185.099 139.437 185.16 139.263 185.283 139.122C185.411 138.981 185.598 138.91 185.844 138.91C186.09 138.91 186.277 138.981 186.404 139.122C186.532 139.263 186.596 139.437 186.596 139.642C186.596 139.847 186.532 140.018 186.404 140.154C186.277 140.291 186.09 140.359 185.844 140.359C185.598 140.359 185.411 140.291 185.283 140.154C185.16 140.018 185.099 139.847 185.099 139.642ZM194.758 145.384C194.758 146.514 194.498 147.423 193.979 148.111C193.459 148.795 192.762 149.137 191.887 149.137C190.952 149.137 190.23 148.806 189.72 148.146L189.658 149H188.496V138.5H189.761V142.417C190.271 141.784 190.975 141.467 191.873 141.467C192.771 141.467 193.475 141.806 193.985 142.485C194.5 143.164 194.758 144.094 194.758 145.274V145.384ZM193.493 145.24C193.493 144.379 193.327 143.714 192.994 143.244C192.661 142.775 192.183 142.54 191.559 142.54C190.725 142.54 190.125 142.927 189.761 143.702V146.901C190.148 147.676 190.752 148.063 191.572 148.063C192.178 148.063 192.65 147.829 192.987 147.359C193.325 146.89 193.493 146.184 193.493 145.24ZM200.924 148.269C200.432 148.847 199.709 149.137 198.757 149.137C197.968 149.137 197.367 148.909 196.952 148.453C196.542 147.993 196.335 147.314 196.33 146.416V141.604H197.595V146.382C197.595 147.503 198.05 148.063 198.962 148.063C199.928 148.063 200.571 147.703 200.89 146.983V141.604H202.154V149H200.951L200.924 148.269ZM205.798 139.812V141.604H207.179V142.581H205.798V147.168C205.798 147.464 205.859 147.688 205.982 147.838C206.105 147.984 206.315 148.057 206.611 148.057C206.757 148.057 206.958 148.029 207.213 147.975V149C206.88 149.091 206.557 149.137 206.242 149.137C205.677 149.137 205.251 148.966 204.964 148.624C204.677 148.282 204.533 147.797 204.533 147.168V142.581H203.187V141.604H204.533V139.812H205.798ZM211.731 149.137C210.729 149.137 209.913 148.809 209.284 148.152C208.655 147.492 208.341 146.61 208.341 145.507V145.274C208.341 144.541 208.48 143.887 208.758 143.312C209.04 142.734 209.432 142.283 209.934 141.959C210.439 141.631 210.986 141.467 211.574 141.467C212.536 141.467 213.283 141.784 213.816 142.417C214.35 143.05 214.616 143.957 214.616 145.138V145.664H209.605C209.624 146.393 209.836 146.983 210.241 147.435C210.651 147.881 211.171 148.104 211.8 148.104C212.246 148.104 212.625 148.013 212.935 147.831C213.244 147.649 213.516 147.407 213.748 147.106L214.521 147.708C213.901 148.66 212.971 149.137 211.731 149.137ZM211.574 142.506C211.064 142.506 210.635 142.693 210.289 143.066C209.943 143.436 209.729 143.955 209.646 144.625H213.352V144.529C213.315 143.887 213.142 143.39 212.832 143.039C212.522 142.684 212.103 142.506 211.574 142.506ZM220.823 142.499C221.384 141.811 222.113 141.467 223.011 141.467C224.574 141.467 225.362 142.349 225.376 144.112V149H224.111V144.105C224.107 143.572 223.984 143.178 223.742 142.923C223.505 142.668 223.134 142.54 222.628 142.54C222.218 142.54 221.858 142.649 221.548 142.868C221.238 143.087 220.996 143.374 220.823 143.729V149H219.559V138.5H220.823V142.499ZM226.935 145.233C226.935 144.509 227.076 143.857 227.358 143.278C227.646 142.7 228.042 142.253 228.548 141.938C229.058 141.624 229.639 141.467 230.291 141.467C231.298 141.467 232.112 141.815 232.731 142.513C233.356 143.21 233.668 144.137 233.668 145.295V145.384C233.668 146.104 233.529 146.751 233.251 147.325C232.978 147.895 232.583 148.339 232.068 148.658C231.558 148.977 230.97 149.137 230.305 149.137C229.302 149.137 228.489 148.788 227.864 148.091C227.244 147.394 226.935 146.471 226.935 145.322V145.233ZM228.206 145.384C228.206 146.204 228.395 146.863 228.773 147.359C229.156 147.856 229.667 148.104 230.305 148.104C230.947 148.104 231.458 147.854 231.836 147.353C232.214 146.847 232.403 146.14 232.403 145.233C232.403 144.422 232.21 143.766 231.822 143.265C231.439 142.759 230.929 142.506 230.291 142.506C229.667 142.506 229.163 142.754 228.78 143.251C228.397 143.748 228.206 144.459 228.206 145.384ZM239.82 148.269C239.328 148.847 238.606 149.137 237.653 149.137C236.865 149.137 236.263 148.909 235.849 148.453C235.438 147.993 235.231 147.314 235.227 146.416V141.604H236.491V146.382C236.491 147.503 236.947 148.063 237.858 148.063C238.825 148.063 239.467 147.703 239.786 146.983V141.604H241.051V149H239.848L239.82 148.269ZM246.554 142.738C246.362 142.706 246.155 142.69 245.932 142.69C245.102 142.69 244.539 143.044 244.243 143.75V149H242.979V141.604H244.209L244.229 142.458C244.644 141.797 245.232 141.467 245.993 141.467C246.239 141.467 246.426 141.499 246.554 141.562V142.738ZM252.029 147.038C252.029 146.696 251.899 146.432 251.64 146.245C251.384 146.054 250.936 145.89 250.293 145.753C249.655 145.616 249.147 145.452 248.769 145.261C248.395 145.069 248.117 144.841 247.935 144.577C247.757 144.313 247.668 143.998 247.668 143.634C247.668 143.028 247.923 142.515 248.434 142.096C248.949 141.676 249.605 141.467 250.402 141.467C251.241 141.467 251.92 141.683 252.439 142.116C252.964 142.549 253.226 143.103 253.226 143.777H251.954C251.954 143.431 251.806 143.132 251.51 142.882C251.218 142.631 250.849 142.506 250.402 142.506C249.942 142.506 249.582 142.606 249.322 142.807C249.062 143.007 248.933 143.269 248.933 143.593C248.933 143.898 249.053 144.128 249.295 144.283C249.536 144.438 249.972 144.586 250.601 144.728C251.234 144.869 251.747 145.037 252.139 145.233C252.531 145.429 252.82 145.666 253.007 145.944C253.198 146.218 253.294 146.553 253.294 146.949C253.294 147.61 253.03 148.141 252.501 148.542C251.972 148.938 251.286 149.137 250.443 149.137C249.851 149.137 249.327 149.032 248.871 148.822C248.415 148.613 248.058 148.321 247.798 147.947C247.543 147.569 247.415 147.161 247.415 146.724H248.68C248.702 147.147 248.871 147.485 249.186 147.735C249.505 147.981 249.924 148.104 250.443 148.104C250.922 148.104 251.305 148.009 251.592 147.817C251.883 147.621 252.029 147.362 252.029 147.038ZM261.483 149.137C260.481 149.137 259.665 148.809 259.036 148.152C258.407 147.492 258.093 146.61 258.093 145.507V145.274C258.093 144.541 258.232 143.887 258.51 143.312C258.792 142.734 259.184 142.283 259.686 141.959C260.191 141.631 260.738 141.467 261.326 141.467C262.288 141.467 263.035 141.784 263.568 142.417C264.102 143.05 264.368 143.957 264.368 145.138V145.664H259.357C259.376 146.393 259.588 146.983 259.993 147.435C260.403 147.881 260.923 148.104 261.552 148.104C261.998 148.104 262.377 148.013 262.687 147.831C262.996 147.649 263.268 147.407 263.5 147.106L264.272 147.708C263.653 148.66 262.723 149.137 261.483 149.137ZM261.326 142.506C260.816 142.506 260.387 142.693 260.041 143.066C259.695 143.436 259.48 143.955 259.398 144.625H263.104V144.529C263.067 143.887 262.894 143.39 262.584 143.039C262.274 142.684 261.855 142.506 261.326 142.506ZM268.183 147.284L270.015 141.604H271.307L268.654 149H267.69L265.011 141.604H266.303L268.183 147.284ZM275.497 149.137C274.494 149.137 273.679 148.809 273.05 148.152C272.421 147.492 272.106 146.61 272.106 145.507V145.274C272.106 144.541 272.245 143.887 272.523 143.312C272.806 142.734 273.198 142.283 273.699 141.959C274.205 141.631 274.752 141.467 275.34 141.467C276.301 141.467 277.049 141.784 277.582 142.417C278.115 143.05 278.382 143.957 278.382 145.138V145.664H273.371C273.389 146.393 273.601 146.983 274.007 147.435C274.417 147.881 274.937 148.104 275.565 148.104C276.012 148.104 276.39 148.013 276.7 147.831C277.01 147.649 277.281 147.407 277.514 147.106L278.286 147.708C277.666 148.66 276.737 149.137 275.497 149.137ZM275.34 142.506C274.829 142.506 274.401 142.693 274.055 143.066C273.708 143.436 273.494 143.955 273.412 144.625H277.117V144.529C277.081 143.887 276.908 143.39 276.598 143.039C276.288 142.684 275.868 142.506 275.34 142.506ZM281.048 141.604L281.089 142.533C281.654 141.822 282.392 141.467 283.304 141.467C284.867 141.467 285.655 142.349 285.669 144.112V149H284.404V144.105C284.4 143.572 284.277 143.178 284.035 142.923C283.798 142.668 283.427 142.54 282.921 142.54C282.511 142.54 282.151 142.649 281.841 142.868C281.531 143.087 281.289 143.374 281.116 143.729V149H279.852V141.604H281.048ZM288.95 149H287.686V138.5H288.95V149ZM293.4 147.147L295.123 141.604H296.477L293.503 150.142C293.043 151.372 292.311 151.987 291.309 151.987L291.069 151.967L290.598 151.878V150.853L290.939 150.88C291.368 150.88 291.701 150.793 291.938 150.62C292.179 150.447 292.377 150.13 292.532 149.67L292.812 148.918L290.174 141.604H291.555L293.4 147.147Z" fill="black"/>
<defs>
<filter id="filter0_d" x="0" y="0" width="415" height="537" filterUnits="userSpaceOnUse" color-interpolation-filters="sRGB">
<feFlood flood-opacity="0" result="BackgroundImageFix"/>
<feColorMatrix in="SourceAlpha" type="matrix" values="0 0 0 0 0 0 0 0 0 0 0 0 0 0 0 0 0 0 127 0"/>
<feOffset dx="5" dy="10"/>
<feGaussianBlur stdDeviation="0.5"/>
<feColorMatrix type="matrix" values="0 0 0 0 0 0 0 0 0 0 0 0 0 0 0 0 0 0 0.3 0"/>
<feBlend mode="normal" in2="BackgroundImageFix" result="effect1_dropShadow"/>
<feBlend mode="normal" in="SourceGraphic" in2="effect1_dropShadow" result="shape"/>
</filter>
<filter id="filter1_d" x="656" y="63" width="395" height="389" filterUnits="userSpaceOnUse" color-interpolation-filters="sRGB">
<feFlood flood-opacity="0" result="BackgroundImageFix"/>
<feColorMatrix in="SourceAlpha" type="matrix" values="0 0 0 0 0 0 0 0 0 0 0 0 0 0 0 0 0 0 127 0"/>
<feOffset dy="10"/>
<feGaussianBlur stdDeviation="3.5"/>
<feColorMatrix type="matrix" values="0 0 0 0 0 0 0 0 0 0 0 0 0 0 0 0 0 0 0.3 0"/>
<feBlend mode="normal" in2="BackgroundImageFix" result="effect1_dropShadow"/>
<feBlend mode="normal" in="SourceGraphic" in2="effect1_dropShadow" result="shape"/>
</filter>
</defs>
</svg>
