<?xml version="1.0" encoding="UTF-8" standalone="no"?><!DOCTYPE svg PUBLIC "-//W3C//DTD SVG 1.1//EN" "http://www.w3.org/Graphics/SVG/1.1/DTD/svg11.dtd">
<svg width="100%" height="100%" viewBox="0 0 1007 1352" version="1.1" 
    xmlns="http://www.w3.org/2000/svg" 
    xmlns:xlink="http://www.w3.org/1999/xlink" xml:space="preserve" style="fill-rule:evenodd;clip-rule:evenodd;stroke-linejoin:round;stroke-miterlimit:1.41421;">
    <rect id="Artboard1" x="0" y="0" width="1006.77" height="1351.26" style="fill:none;"/>
    <path d="M406.189,231.684c32.411,17.624 64.256,26.139 79.205,22.663c37.485,-8.717 40.93,-132.426 11.928,-181.196c-29.004,-48.77 -178.107,-70.028 -185.622,26.602c-2.609,33.537 13.001,63.466 36.064,87.888l-41.353,173.884l120.121,0l-20.343,-129.841Z" style="fill:#b28b67;"/>
    <path d="M338.534,209.393c-15.077,-60.509 -58.027,-101.757 -51.468,-128.802c6.561,-27.045 34.967,-33.637 34.967,-33.637c0,0 14.693,-53.619 94.768,-45.612c80.076,8.006 128.95,38.006 107.843,104.02c-19.401,0 -42.823,-6.329 -75.211,4.515c-15.414,5.163 -22.049,32.015 -22.049,32.015l-14.636,0c0,0 -21.308,-31.867 -42.018,-23.421c-20.71,8.447 -9.416,41.033 -9.416,41.033l-7.21,49.889l-15.57,0Z" style="fill:#191847;"/>
    <path d="M141.516,918.141l316.092,-7.093l41.882,436.713l-475.808,0l117.834,-429.62Z" style="fill:#c5cfd6;"/>
    <path d="M137.97,911.048l98.307,0l58.838,436.713l-271.433,0l114.288,-436.713Z" style="fill-opacity:0.0980392;"/>
    <path d="M633.227,997.568c-35.919,64.844 -92.046,222.251 -92.046,222.251l47.651,18.528c0,0 120.9,-165.46 194.788,-278.569c-3.443,25.463 -6.948,54.131 -10.199,84.266c-7.698,71.39 -0.004,225.628 4.138,270.177c2.604,28.011 47.3,22.139 51.473,-0.071c0.707,-3.764 3.587,-16.965 7.879,-36.664c21.083,-96.616 76.232,-349.471 76.329,-411.384c0.033,-24.912 -57.144,-47.292 -91.22,-29.874c-23.409,-21.261 -67.713,-33.516 -93.165,1.606c-16.18,22.327 -54.626,85.715 -95.628,159.734Z" style="fill:#b28b67;"/>
    <path d="M544.588,1161.54l163.544,-329.784c39.179,-53.647 149.032,10.916 135.67,42.031c-30.338,70.642 -184.607,299.336 -193.644,320.385l-105.57,-32.632Z" style="fill:#1f28cf;"/>
    <path d="M543.886,1195.83c-0.715,-0.9 -2.15,-1.042 -3.232,-0.308c-5.412,3.682 -20.469,14.266 -25.03,20.99c-5.595,8.252 -13.102,25.666 -13.102,25.666c11.243,5.529 202.096,99.316 202.096,99.316c0,0 22.914,-18.291 7.141,-28.401c-15.774,-10.111 -26.034,-17.048 -26.034,-17.048l-71.617,-83.996c-0.359,-0.415 -1.05,-0.474 -1.579,-0.13l-16.927,11.093c0,0 -19.944,-1.48 -29.767,-6.311c-8.003,-3.93 -18.378,-16.384 -21.949,-20.871Z" style="fill:#e4e4e4;"/>
    <path d="M546.493,1196.02c-0.845,-0.781 -2.131,-0.769 -2.97,0.071c-4.207,4.191 -16.044,16.421 -18.726,23.725c-3.276,8.927 -6.07,27.371 -6.07,27.371c12.162,4.629 218.595,83.144 218.595,83.144c0,0 17.326,-20.742 -0.33,-29.633c-17.657,-8.89 -29.233,-15.058 -29.233,-15.058l-89.847,-79.32c-0.418,-0.367 -1.04,-0.343 -1.453,0.047l-13.432,12.869c0,0 -19.474,0.296 -30.099,-3.753c-8.754,-3.327 -22.03,-15.331 -26.435,-19.463Z" style="fill:#1a1616;"/>
    <path d="M772.215,1289.92c-1.03,-0.426 -2.179,0.048 -2.675,1.125c-2.488,5.399 -9.389,21.109 -9.389,28.922c0,9.519 3.729,27.798 3.729,27.798c12.983,0 233.357,0 233.357,0c0,0 9.102,-25.596 -10.504,-27.632c-19.594,-2.048 -32.557,-3.694 -32.557,-3.694l-111.474,-42.3c-0.507,-0.189 -1.057,0.048 -1.305,0.557l-8.163,16.858c0,0 -18.145,7.21 -29.488,7.21c-9.387,0 -26.061,-6.582 -31.531,-8.844Z" style="fill:#1a1616;"/>
    <path d="M924.704,891.44c0,93.567 -52.206,311.817 -52.238,332.428l-112.315,0.071c0,0 24.658,-292.12 17.488,-295.267c-7.171,-3.148 -293.971,24.374 -379.986,24.374c-124.036,0 -175.347,-66.58 -179.51,-189.919l245.708,0c50.03,4.557 310.983,49.361 407.893,64.763c41.496,6.593 52.96,37.776 52.96,63.55Z" style="fill:#2b44ff;"/>
    <path d="M775.909,608.395l-131.953,-82.452l-29.169,61.357l130.668,46.107c36.955,36.939 57.619,52.337 61.993,46.196c3.688,-5.178 0.806,-10.026 -1.85,-14.49c-2.069,-3.478 -3.999,-6.725 -2.578,-9.714c3.246,-6.827 28.07,-6.107 51.588,-4.568c23.53,1.539 16.672,-7.368 10.999,-11.766c-24.005,-12.23 -53.91,-22.453 -89.698,-30.67Zm-60.312,51.657l-127.578,-91.429l-27.743,62.43l126.13,53.632c35.811,39.985 55.804,56.885 59.982,50.7c3.523,-5.213 0.718,-10.374 -1.866,-15.127c-2.013,-3.703 -3.89,-7.159 -2.539,-10.201c3.087,-6.946 27.003,-5.107 49.67,-2.473c22.667,2.635 16.012,-6.916 10.524,-11.733c-23.2,-13.757 -52.06,-25.69 -86.58,-35.799Z" style="fill:#b28b67;"/>
    <path d="M439.003,303.899c71.857,114.01 175.765,201.407 326.405,292.26l-57.039,54.725c-168.194,-53.187 -256.963,-85.277 -300.556,-192.993c-10.94,-27.035 -18.587,-113.217 -25.147,-158.561l56.337,4.569Z" style="fill:#2026a2;"/>
    <path d="M238.337,761.672l233.229,0l0,-167.295c0,0 -36.164,-142.002 -38.534,-266.202c-0.08,-4.222 -2.933,-23.754 -7.1,-29.692c-29.112,-12.955 -69.842,-12.955 -69.842,-12.955c-76.3,122.621 -102.685,273.592 -117.753,476.144Z" style="fill:#f2f2f2;"/>
    <path d="M372.182,770.363l-169.836,0c-26.974,-154.252 43.919,-368.127 109.642,-476.003c2.509,-4.12 7.853,-11.887 20.439,-11.887l49.35,0c5.617,14.393 11.027,28.782 16.206,43.118c6.809,-4.336 13.77,-9.074 20.842,-14.265c8.589,12.926 17.711,27.744 27.724,44.013c44.267,71.918 105.99,172.197 216.51,262.939l-59.656,49.806c-49.362,-23.585 -96.763,-48.459 -139.497,-75.132c9.13,105.221 -15.183,177.411 -91.724,177.411Z" style="fill:#1f28cf;"/>
</svg>